<?xml version="1.0" encoding="utf-8"?>
<!-- Generator: Adobe Illustrator 24.3.0, SVG Export Plug-In . SVG Version: 6.00 Build 0)  -->
<svg version="1.1" id="Layer_1" xmlns="http://www.w3.org/2000/svg" xmlns:xlink="http://www.w3.org/1999/xlink" x="0px" y="0px"
	 viewBox="0 0 230.7 57.1" style="enable-background:new 0 0 230.7 57.1;" xml:space="preserve">
<style type="text/css">
	.st0{fill:#AEAEAE;}
	.st1{fill:#CCCCCC;}
	.st2{fill:#FFFFFF;}
</style>
<g>
	<polygon class="st0" points="115,33.5 107.1,33.5 107.1,39.1 113.7,39.1 113.7,42.5 107.1,42.5 107.1,51.2 103.4,51.2 103.4,30.1 
		115,30.1 	"/>
	<path class="st0" d="M118,49.2c-1.6-1.6-2.4-3.5-2.4-5.8s0.8-4.2,2.4-5.8c1.6-1.5,3.6-2.3,6-2.3s4.4,0.8,6,2.3
		c1.6,1.6,2.4,3.5,2.4,5.8s-0.8,4.3-2.4,5.8c-1.6,1.6-3.6,2.3-6,2.3C121.6,51.6,119.6,50.8,118,49.2 M124,48.3
		c1.4,0,2.5-0.5,3.4-1.4s1.4-2.1,1.4-3.5s-0.5-2.5-1.4-3.5c-0.9-0.9-2.1-1.4-3.4-1.4c-1.4,0-2.5,0.5-3.5,1.4
		c-0.9,0.9-1.4,2.1-1.4,3.5s0.5,2.5,1.4,3.5C121.5,47.8,122.6,48.3,124,48.3"/>
	<path class="st0" d="M136.1,49.2c-1.6-1.6-2.4-3.5-2.4-5.8s0.8-4.2,2.4-5.8c1.6-1.5,3.6-2.3,6-2.3s4.4,0.8,6,2.3
		c1.6,1.6,2.4,3.5,2.4,5.8s-0.8,4.3-2.4,5.8c-1.6,1.6-3.6,2.3-6,2.3C139.7,51.6,137.7,50.8,136.1,49.2 M142.1,48.3
		c1.4,0,2.5-0.5,3.4-1.4s1.4-2.1,1.4-3.5s-0.5-2.5-1.4-3.5c-0.9-0.9-2.1-1.4-3.4-1.4c-1.4,0-2.5,0.5-3.5,1.4
		c-0.9,0.9-1.4,2.1-1.4,3.5s0.5,2.5,1.4,3.5C139.6,47.8,140.7,48.3,142.1,48.3"/>
	<path class="st0" d="M165,29.2h3.5v22H165v-2.4c-1.4,1.8-3.2,2.8-5.5,2.8c-2.2,0-4.1-0.8-5.5-2.3c-1.5-1.6-2.2-3.5-2.2-5.8
		s0.7-4.2,2.2-5.8c1.5-1.5,3.3-2.3,5.5-2.3c2.3,0,4.1,0.9,5.5,2.8V29.2z M163.6,46.9c0.9-0.9,1.4-2.1,1.4-3.5s-0.5-2.5-1.4-3.5
		c-0.9-0.9-2.1-1.4-3.4-1.4c-1.4,0-2.6,0.5-3.5,1.4s-1.4,2.1-1.4,3.5s0.5,2.5,1.4,3.5c0.9,0.9,2.1,1.4,3.5,1.4
		C161.6,48.3,162.7,47.8,163.6,46.9"/>
	<path class="st0" d="M172.4,50.1c-1.1-1-1.6-2.1-1.6-3.5h3.5c0,0.6,0.2,1,0.6,1.4c0.4,0.4,0.9,0.6,1.5,0.6s1-0.2,1.4-0.5
		s0.6-0.7,0.6-1.2c0-1-0.9-1.7-2.8-2.2c-3.1-0.8-4.6-2.4-4.6-4.8c0-1.4,0.5-2.6,1.5-3.4c1-0.8,2.3-1.3,3.8-1.3s2.8,0.5,3.9,1.4
		c1,0.9,1.5,2,1.5,3.4h-3.5c0-1-0.8-1.8-1.9-1.8c-1,0-1.8,0.7-1.8,1.5c0,1,0.9,1.7,2.8,2.2c3.1,0.8,4.6,2.4,4.6,4.7
		c0,1.5-0.5,2.7-1.6,3.6c-1.1,0.9-2.4,1.3-4,1.3C174.7,51.6,173.4,51.1,172.4,50.1"/>
	<path class="st0" d="M109.6,21c-2.2,0-4-0.6-5.5-1.8c-1.5-1.2-2.2-2.7-2.2-4.5h5.5c0,0.5,0.2,1,0.7,1.4c0.4,0.4,1,0.6,1.6,0.6
		s1.1-0.2,1.5-0.4c0.4-0.3,0.6-0.7,0.6-1.1c0-0.9-1.2-1.7-3.5-2.2c-4.1-1-6.1-3.1-6.1-6.3c0-1.7,0.7-3.1,2.1-4.3
		c1.4-1.1,3.1-1.7,5.2-1.7s3.9,0.6,5.3,1.8s2.1,2.6,2.1,4.4h-5.4c0-1-0.8-1.7-2-1.7c-1.1,0-1.9,0.6-1.9,1.4c0,1.1,1.1,1.6,3.3,2.2
		c1.8,0.4,3,0.9,4.3,1.9c1.3,0.9,2,2.5,2,4.4c0,1.8-0.7,3.3-2.2,4.5C113.6,20.4,111.8,21,109.6,21"/>
	<path class="st0" d="M132.7,20.6h-4.4v-1.4c-1,1.2-2.5,1.7-4.3,1.7c-1.6,0-2.9-0.5-3.9-1.5s-1.6-2.2-1.6-3.6s0.5-2.6,1.6-3.6
		c1-1,2.4-1.4,3.9-1.4h3.7V9.5h-8V4.9h13V20.6z M127.6,15.7v-1.4h-2.2c-1,0-1.8,0.6-1.8,1.5c0,0.9,0.8,1.5,1.8,1.5
		C126.7,17.4,127.6,16.6,127.6,15.7"/>
	<path class="st0" d="M160.3,7.8v12.8h-5V9.8h-5v10.9h-5V9.8h-5v10.9h-5V4.9h22.2C159,4.9,160.3,6.2,160.3,7.8"/>
	<polygon class="st0" points="173.4,4.9 179,4.9 170.3,26.5 163.8,26.5 163.8,21.9 166.8,21.9 167.4,20.4 161.2,4.9 166.9,4.9 
		170.2,14.1 	"/>
	<path class="st0" d="M193.1,20.6h-4.4v-1.4c-1,1.2-2.5,1.7-4.3,1.7c-1.6,0-2.9-0.5-3.9-1.5s-1.6-2.2-1.6-3.6s0.5-2.6,1.6-3.6
		c1-1,2.4-1.4,3.9-1.4h3.7V9.5h-8V4.9h13V20.6z M188.1,15.7v-1.4h-2.2c-1,0-1.8,0.6-1.8,1.5c0,0.9,0.8,1.5,1.8,1.5
		C187.1,17.4,188.1,16.6,188.1,15.7"/>
	<path class="st0" d="M211.2,7.8v12.8h-5V9.8h-5.5v10.9h-5V4.9h12.7C209.9,4.9,211.2,6.2,211.2,7.8"/>
	<path class="st0" d="M225,4.9h5v21.6h-15.5v-4.6H225v-3.3c-1.2,1.2-2.7,1.8-4.4,1.8c-2.2,0-4-0.8-5.4-2.3s-2.2-3.4-2.2-5.7
		s0.7-4.1,2.2-5.7c1.4-1.5,3.2-2.3,5.4-2.3c1.8,0,3.2,0.6,4.4,1.8V4.9z M224,14.9c0.7-0.6,1-1.5,1-2.4c0-1-0.3-1.8-1-2.4
		c-0.7-0.6-1.5-1-2.4-1c-1,0-1.8,0.3-2.4,1c-0.7,0.6-1,1.5-1,2.4c0,1,0.3,1.8,1,2.4c0.7,0.7,1.5,1,2.4,1S223.3,15.6,224,14.9"/>
	<path class="st1" d="M34.3,28c0-9.5,4.8-17.9,12.1-23H0v46h46.4C39.1,45.9,34.3,37.5,34.3,28"/>
	<path class="st1" d="M62.6,0c-6,0-11.6,1.9-16.2,5l0,0v46l0,0c4.6,3.2,10.2,5,16.2,5c15.6,0,28.3-12.5,28.3-28S78.2,0,62.6,0"/>
	<path class="st2" d="M46.4,5L46.4,5c-7.3,5.1-12.1,13.5-12.1,23s4.8,17.9,12.1,23l0,0V5z"/>
</g>
</svg>
